<svg xmlns="http://www.w3.org/2000/svg" viewBox="0 0 1920 1080"><g transform="
          rotate(134 960 540) 
          translate(-934.545294885269 -525.6817283729638)
          scale(1.9734846821721552)
        "><rect width="1920" height="1080" fill="rgb(48, 180, 171)"></rect><g transform="translate(0, 0)"><path fill="rgb(78, 191, 183)" fill-opacity="1" d="M0,176.472L13.913,175.038C27.826,173.603,55.652,170.735,83.478,170.291C111.304,169.846,139.13,171.825,166.957,172.047C194.783,172.27,222.609,170.736,250.435,151.592C278.261,132.447,306.087,95.692,333.913,92.587C361.739,89.483,389.565,120.03,417.391,110.668C445.217,101.306,473.043,52.034,500.87,49.24C528.696,46.446,556.522,90.129,584.348,101.009C612.174,111.89,640,89.968,667.826,69.678C695.652,49.387,723.478,30.728,751.304,40.359C779.13,49.991,806.957,87.914,834.783,94.752C862.609,101.59,890.435,77.343,918.261,65.207C946.087,53.071,973.913,53.045,1001.739,70.637C1029.565,88.229,1057.391,123.439,1085.217,142.349C1113.043,161.259,1140.87,163.869,1168.696,142.337C1196.522,120.806,1224.348,75.131,1252.174,56.312C1280,37.492,1307.826,45.526,1335.652,63.136C1363.478,80.747,1391.304,107.933,1419.13,127.165C1446.957,146.397,1474.783,157.675,1502.609,150.257C1530.435,142.839,1558.261,116.726,1586.087,90.156C1613.913,63.587,1641.739,36.561,1669.565,21.682C1697.391,6.803,1725.217,4.071,1753.043,20.539C1780.87,37.008,1808.696,72.679,1836.522,83.891C1864.348,95.103,1892.174,81.857,1906.087,75.234L1920,68.61L1920,1080L1906.087,1080C1892.174,1080,1864.348,1080,1836.522,1080C1808.696,1080,1780.87,1080,1753.043,1080C1725.217,1080,1697.391,1080,1669.565,1080C1641.739,1080,1613.913,1080,1586.087,1080C1558.261,1080,1530.435,1080,1502.609,1080C1474.783,1080,1446.957,1080,1419.13,1080C1391.304,1080,1363.478,1080,1335.652,1080C1307.826,1080,1280,1080,1252.174,1080C1224.348,1080,1196.522,1080,1168.696,1080C1140.87,1080,1113.043,1080,1085.217,1080C1057.391,1080,1029.565,1080,1001.739,1080C973.913,1080,946.087,1080,918.261,1080C890.435,1080,862.609,1080,834.783,1080C806.957,1080,779.13,1080,751.304,1080C723.478,1080,695.652,1080,667.826,1080C640,1080,612.174,1080,584.348,1080C556.522,1080,528.696,1080,500.87,1080C473.043,1080,445.217,1080,417.391,1080C389.565,1080,361.739,1080,333.913,1080C306.087,1080,278.261,1080,250.435,1080C222.609,1080,194.783,1080,166.957,1080C139.13,1080,111.304,1080,83.478,1080C55.652,1080,27.826,1080,13.913,1080L0,1080Z"></path></g><g transform="translate(0, 180)"><path fill="rgb(107, 201, 195)" fill-opacity="1" d="M0,25.742L13.913,28.983C27.826,32.224,55.652,38.706,83.478,43.304C111.304,47.902,139.13,50.616,166.957,66.528C194.783,82.44,222.609,111.551,250.435,131.375C278.261,151.199,306.087,161.738,333.913,168.059C361.739,174.38,389.565,176.484,417.391,164.312C445.217,152.14,473.043,125.691,500.87,104.647C528.696,83.604,556.522,67.967,584.348,54.318C612.174,40.67,640,29.011,667.826,46.237C695.652,63.462,723.478,109.573,751.304,136.084C779.13,162.595,806.957,169.506,834.783,173.207C862.609,176.908,890.435,177.399,918.261,167.141C946.087,156.883,973.913,135.876,1001.739,122.758C1029.565,109.641,1057.391,104.412,1085.217,93.729C1113.043,83.046,1140.87,66.908,1168.696,79.655C1196.522,92.402,1224.348,134.033,1252.174,151.394C1280,168.755,1307.826,161.846,1335.652,159.882C1363.478,157.917,1391.304,160.898,1419.13,157.44C1446.957,153.982,1474.783,144.085,1502.609,119.395C1530.435,94.704,1558.261,55.221,1586.087,59.949C1613.913,64.677,1641.739,113.617,1669.565,124.736C1697.391,135.855,1725.217,109.153,1753.043,86.448C1780.87,63.743,1808.696,45.034,1836.522,44.649C1864.348,44.263,1892.174,62.201,1906.087,71.169L1920,80.138L1920,900L1906.087,900C1892.174,900,1864.348,900,1836.522,900C1808.696,900,1780.87,900,1753.043,900C1725.217,900,1697.391,900,1669.565,900C1641.739,900,1613.913,900,1586.087,900C1558.261,900,1530.435,900,1502.609,900C1474.783,900,1446.957,900,1419.13,900C1391.304,900,1363.478,900,1335.652,900C1307.826,900,1280,900,1252.174,900C1224.348,900,1196.522,900,1168.696,900C1140.87,900,1113.043,900,1085.217,900C1057.391,900,1029.565,900,1001.739,900C973.913,900,946.087,900,918.261,900C890.435,900,862.609,900,834.783,900C806.957,900,779.13,900,751.304,900C723.478,900,695.652,900,667.826,900C640,900,612.174,900,584.348,900C556.522,900,528.696,900,500.87,900C473.043,900,445.217,900,417.391,900C389.565,900,361.739,900,333.913,900C306.087,900,278.261,900,250.435,900C222.609,900,194.783,900,166.957,900C139.13,900,111.304,900,83.478,900C55.652,900,27.826,900,13.913,900L0,900Z"></path></g><g transform="translate(0, 360)"><path fill="rgb(137, 212, 207)" fill-opacity="1" d="M0,176.302L13.913,162.197C27.826,148.092,55.652,119.883,83.478,103.26C111.304,86.637,139.13,81.6,166.957,68.215C194.783,54.83,222.609,33.097,250.435,21.973C278.261,10.848,306.087,10.334,333.913,20.119C361.739,29.904,389.565,49.99,417.391,77.212C445.217,104.434,473.043,138.792,500.87,150.442C528.696,162.092,556.522,151.034,584.348,126.275C612.174,101.516,640,63.055,667.826,67.787C695.652,72.519,723.478,120.445,751.304,127.931C779.13,135.417,806.957,102.464,834.783,94.741C862.609,87.018,890.435,104.525,918.261,105.604C946.087,106.682,973.913,91.333,1001.739,93.136C1029.565,94.939,1057.391,113.894,1085.217,123.115C1113.043,132.336,1140.87,131.821,1168.696,122.977C1196.522,114.133,1224.348,96.96,1252.174,92.004C1280,87.049,1307.826,94.311,1335.652,97.861C1363.478,101.411,1391.304,101.248,1419.13,99.482C1446.957,97.716,1474.783,94.346,1502.609,91.388C1530.435,88.431,1558.261,85.887,1586.087,73.779C1613.913,61.672,1641.739,40.003,1669.565,27.062C1697.391,14.122,1725.217,9.912,1753.043,15.924C1780.87,21.937,1808.696,38.171,1836.522,48.377C1864.348,58.583,1892.174,62.761,1906.087,64.849L1920,66.938L1920,720L1906.087,720C1892.174,720,1864.348,720,1836.522,720C1808.696,720,1780.87,720,1753.043,720C1725.217,720,1697.391,720,1669.565,720C1641.739,720,1613.913,720,1586.087,720C1558.261,720,1530.435,720,1502.609,720C1474.783,720,1446.957,720,1419.13,720C1391.304,720,1363.478,720,1335.652,720C1307.826,720,1280,720,1252.174,720C1224.348,720,1196.522,720,1168.696,720C1140.87,720,1113.043,720,1085.217,720C1057.391,720,1029.565,720,1001.739,720C973.913,720,946.087,720,918.261,720C890.435,720,862.609,720,834.783,720C806.957,720,779.13,720,751.304,720C723.478,720,695.652,720,667.826,720C640,720,612.174,720,584.348,720C556.522,720,528.696,720,500.87,720C473.043,720,445.217,720,417.391,720C389.565,720,361.739,720,333.913,720C306.087,720,278.261,720,250.435,720C222.609,720,194.783,720,166.957,720C139.13,720,111.304,720,83.478,720C55.652,720,27.826,720,13.913,720L0,720Z"></path></g><g transform="translate(0, 540)"><path fill="rgb(166, 223, 219)" fill-opacity="1" d="M0,60.086L13.913,66.563C27.826,73.041,55.652,85.997,83.478,95.332C111.304,104.668,139.13,110.383,166.957,119.33C194.783,128.278,222.609,140.458,250.435,138.378C278.261,136.298,306.087,119.958,333.913,103.063C361.739,86.167,389.565,68.715,417.391,69.15C445.217,69.585,473.043,87.907,500.87,84.997C528.696,82.086,556.522,57.943,584.348,64.496C612.174,71.048,640,108.296,667.826,115.607C695.652,122.919,723.478,100.294,751.304,105.334C779.13,110.375,806.957,143.081,834.783,156.865C862.609,170.649,890.435,165.512,918.261,151.09C946.087,136.668,973.913,112.961,1001.739,111.507C1029.565,110.053,1057.391,130.85,1085.217,129.142C1113.043,127.433,1140.87,103.219,1168.696,93.262C1196.522,83.305,1224.348,87.605,1252.174,78.186C1280,68.767,1307.826,45.629,1335.652,49.394C1363.478,53.158,1391.304,83.826,1419.13,80.117C1446.957,76.409,1474.783,38.324,1502.609,32.484C1530.435,26.643,1558.261,53.047,1586.087,77.462C1613.913,101.877,1641.739,124.304,1669.565,111.406C1697.391,98.508,1725.217,50.284,1753.043,47.606C1780.87,44.929,1808.696,87.797,1836.522,94.572C1864.348,101.347,1892.174,72.029,1906.087,57.37L1920,42.711L1920,540L1906.087,540C1892.174,540,1864.348,540,1836.522,540C1808.696,540,1780.87,540,1753.043,540C1725.217,540,1697.391,540,1669.565,540C1641.739,540,1613.913,540,1586.087,540C1558.261,540,1530.435,540,1502.609,540C1474.783,540,1446.957,540,1419.13,540C1391.304,540,1363.478,540,1335.652,540C1307.826,540,1280,540,1252.174,540C1224.348,540,1196.522,540,1168.696,540C1140.87,540,1113.043,540,1085.217,540C1057.391,540,1029.565,540,1001.739,540C973.913,540,946.087,540,918.261,540C890.435,540,862.609,540,834.783,540C806.957,540,779.13,540,751.304,540C723.478,540,695.652,540,667.826,540C640,540,612.174,540,584.348,540C556.522,540,528.696,540,500.87,540C473.043,540,445.217,540,417.391,540C389.565,540,361.739,540,333.913,540C306.087,540,278.261,540,250.435,540C222.609,540,194.783,540,166.957,540C139.13,540,111.304,540,83.478,540C55.652,540,27.826,540,13.913,540L0,540Z"></path></g><g transform="translate(0, 720)"><path fill="rgb(196, 234, 231)" fill-opacity="1" d="M0,84.843L13.913,81.993C27.826,79.144,55.652,73.445,83.478,84.245C111.304,95.046,139.13,122.346,166.957,113.445C194.783,104.543,222.609,59.44,250.435,56.66C278.261,53.879,306.087,93.42,333.913,106.342C361.739,119.264,389.565,105.567,417.391,110.502C445.217,115.437,473.043,139.004,500.87,139.331C528.696,139.658,556.522,116.744,584.348,90.97C612.174,65.195,640,36.56,667.826,34.325C695.652,32.09,723.478,56.256,751.304,81.196C779.13,106.136,806.957,131.851,834.783,124.575C862.609,117.299,890.435,77.032,918.261,57.582C946.087,38.133,973.913,39.5,1001.739,55.803C1029.565,72.106,1057.391,103.344,1085.217,123.996C1113.043,144.648,1140.87,154.713,1168.696,147.016C1196.522,139.318,1224.348,113.858,1252.174,111.967C1280,110.076,1307.826,131.754,1335.652,131.133C1363.478,130.513,1391.304,107.594,1419.13,105.887C1446.957,104.181,1474.783,123.687,1502.609,128.36C1530.435,133.033,1558.261,122.872,1586.087,108.872C1613.913,94.871,1641.739,77.03,1669.565,66.741C1697.391,56.452,1725.217,53.715,1753.043,45.273C1780.87,36.83,1808.696,22.683,1836.522,39.873C1864.348,57.063,1892.174,105.591,1906.087,129.855L1920,154.119L1920,360L1906.087,360C1892.174,360,1864.348,360,1836.522,360C1808.696,360,1780.87,360,1753.043,360C1725.217,360,1697.391,360,1669.565,360C1641.739,360,1613.913,360,1586.087,360C1558.261,360,1530.435,360,1502.609,360C1474.783,360,1446.957,360,1419.13,360C1391.304,360,1363.478,360,1335.652,360C1307.826,360,1280,360,1252.174,360C1224.348,360,1196.522,360,1168.696,360C1140.87,360,1113.043,360,1085.217,360C1057.391,360,1029.565,360,1001.739,360C973.913,360,946.087,360,918.261,360C890.435,360,862.609,360,834.783,360C806.957,360,779.13,360,751.304,360C723.478,360,695.652,360,667.826,360C640,360,612.174,360,584.348,360C556.522,360,528.696,360,500.87,360C473.043,360,445.217,360,417.391,360C389.565,360,361.739,360,333.913,360C306.087,360,278.261,360,250.435,360C222.609,360,194.783,360,166.957,360C139.13,360,111.304,360,83.478,360C55.652,360,27.826,360,13.913,360L0,360Z"></path></g><g transform="translate(0, 900)"><path fill="rgb(225, 244, 243)" fill-opacity="1" d="M0,170.996L13.913,147.395C27.826,123.793,55.652,76.591,83.478,52.6C111.304,28.61,139.13,27.833,166.957,25.823C194.783,23.813,222.609,20.571,250.435,25.215C278.261,29.859,306.087,42.391,333.913,49.964C361.739,57.537,389.565,60.153,417.391,57.734C445.217,55.315,473.043,47.861,500.87,43.548C528.696,39.235,556.522,38.064,584.348,45.653C612.174,53.242,640,69.591,667.826,83.183C695.652,96.774,723.478,107.608,751.304,123.008C779.13,138.408,806.957,158.375,834.783,143.442C862.609,128.509,890.435,78.675,918.261,53.931C946.087,29.187,973.913,29.532,1001.739,30.421C1029.565,31.311,1057.391,32.745,1085.217,52.063C1113.043,71.38,1140.87,108.582,1168.696,119.72C1196.522,130.858,1224.348,115.932,1252.174,108.931C1280,101.93,1307.826,102.854,1335.652,95.449C1363.478,88.044,1391.304,72.311,1419.13,83.708C1446.957,95.106,1474.783,133.634,1502.609,124.275C1530.435,114.915,1558.261,57.668,1586.087,40.084C1613.913,22.5,1641.739,44.58,1669.565,46.483C1697.391,48.386,1725.217,30.113,1753.043,38.837C1780.87,47.56,1808.696,83.279,1836.522,95.227C1864.348,107.174,1892.174,95.35,1906.087,89.438L1920,83.526L1920,180L1906.087,180C1892.174,180,1864.348,180,1836.522,180C1808.696,180,1780.87,180,1753.043,180C1725.217,180,1697.391,180,1669.565,180C1641.739,180,1613.913,180,1586.087,180C1558.261,180,1530.435,180,1502.609,180C1474.783,180,1446.957,180,1419.13,180C1391.304,180,1363.478,180,1335.652,180C1307.826,180,1280,180,1252.174,180C1224.348,180,1196.522,180,1168.696,180C1140.87,180,1113.043,180,1085.217,180C1057.391,180,1029.565,180,1001.739,180C973.913,180,946.087,180,918.261,180C890.435,180,862.609,180,834.783,180C806.957,180,779.13,180,751.304,180C723.478,180,695.652,180,667.826,180C640,180,612.174,180,584.348,180C556.522,180,528.696,180,500.87,180C473.043,180,445.217,180,417.391,180C389.565,180,361.739,180,333.913,180C306.087,180,278.261,180,250.435,180C222.609,180,194.783,180,166.957,180C139.13,180,111.304,180,83.478,180C55.652,180,27.826,180,13.913,180L0,180Z"></path></g></g></svg>